<svg xmlns="http://www.w3.org/2000/svg" width="115" height="20" role="img" aria-label="Infrastructure">
<title>Infrastructure</title>
<linearGradient id="s" x2="0" y2="100%">
    <stop offset="0" stop-color="#fff" stop-opacity=".1"/>
    <stop offset="1" stop-opacity=".1"/>
</linearGradient>
<clipPath id="r">
    <rect width="115" height="20" rx="3" fill="#fff"/>
</clipPath>
<g clip-path="url(#r)">
    <rect x="21" width="120" height="20" fill="#970FF2" />
    <rect width="115" height="20" fill="url(#s)"/>
    <g transform="scale(0.42) translate(8,8)">
        <path d="m27.88,13.4c-0.39,1.42 -1.69,2.08 -4.04,2.08l-2.34,0q-1.17,3.32 -2.33,4.68c-1.17,1.42 -2.61,2.14 -4.42,2.08c-2.72,-0.1 -3.49,-2.23 -3.52,-3.28c-0.05,-1.62 0.86,-3.09 2.02,-3.62c-0.78,-0.26 -1.62,-0.65 -2.13,-1.17c-0.65,-0.65 -0.91,-1.42 -0.91,-2.33a5.16,5.16 0 0 1 0.13,-1.17a5.1,5.1 0 0 1 2.47,-3.27c1.16,-0.67 2.47,-1.02 4.16,-1.02l7.68,0l-2.46,7.02l5.71,-0.01l-0.01,0zm-11.19,2.61c-0.53,0 -1.17,0.39 -1.68,1.04s-0.78,1.3 -0.78,1.95s0.26,1.04 0.78,1.42l1.68,-4.42zm2.34,-7.42l-2.87,0l-1.04,3.38a1.84,1.84 0 0 0 -0.13,0.53c0,0.78 0.53,1.17 1.68,1.17l0.51,0l1.83,-5.08l0.01,0z" fill="#fff"/>
        <path d="m24.22,19.77a8.82,8.82 0 0 1 -4.42,5.6c-2.46,1.31 -7.41,1.7 -9.89,-0.13c-1.42,-1.05 -3,-3 -2.61,-5.46l-3.97,0s0,-3.26 2.74,-3.26l4.68,0c-0.66,1.31 -0.98,3.84 0.47,5.4c0.41,0.44 1.48,1.37 3.6,1.46a6.36,6.36 0 0 0 3.7,-1.09c1.94,-1.28 2.45,-2.79 3.77,-5.78l8.99,0s0,3.37 -3.38,3.25l-3.67,0l-0.01,0.01z" fill="#fff"/>
    </g>
    <!-- Text mittig -->
    <g fill="#000" text-anchor="middle" font-family="sans-serif" text-rendering="geometricPrecision" font-size="14">
        <text aria-hidden="true" x="57%" y="55%" transform="translate(0.6,0.6)" fill="#000" fill-opacity=".8" dominant-baseline="middle">Infrastructure</text>
        <text x="57%" y="55%" fill="#FFF" dominant-baseline="middle">Infrastructure</text>
    </g>
</g>
</svg>